<mxfile host="app.diagrams.net" modified="2023-11-18T11:18:05.490Z" agent="Mozilla/5.0 (X11; Ubuntu; Linux x86_64; rv:109.0) Gecko/20100101 Firefox/113.0" version="22.1.3" etag="GC2x6XrdikIrv3plsCmu" type="github">
  <diagram name="Page-1" id="O5cp-iWvGMD85_8pqfXW">
    <mxGraphModel>
      <root>
        <mxCell id="0" />
        <mxCell id="1" parent="0" />
      </root>
    </mxGraphModel>
  </diagram>
</mxfile>
